<svg width="63" height="55" viewBox="0 0 63 55" fill="none" xmlns="http://www.w3.org/2000/svg">
<path d="M47.261 15.7018H39.3915V31.4035H47.261V15.7018ZM23.6085 15.7018L15.739 15.7018L15.739 31.4035H23.6085L23.6085 15.7018ZM63 47.1491L39.3915 47.1491C37.2519 47.1491 35.4054 47.924 33.8521 49.4737C32.2987 51.0234 31.522 52.8655 31.522 55C31.522 52.8655 30.7599 51.0234 29.2359 49.4737C27.6825 47.924 25.8067 47.1491 23.6085 47.1491H0.0439637L0 7.85088C0 5.68713 0.776692 3.84503 2.33008 2.32456C3.88346 0.774854 5.72994 0 7.8695 0L23.6085 0C25.836 0 27.7118 0.774854 29.2359 2.32456C30.7599 3.87427 31.522 5.71637 31.522 7.85088C31.522 5.68713 32.2987 3.84503 33.8521 2.32456C35.4054 0.774854 37.2519 0 39.3915 0H55.1305C57.358 0 59.2338 0.774854 60.7579 2.32456C62.2526 3.87427 63 5.71637 63 7.85088L63 47.1491Z" fill="white"/>
</svg>
